General
Complete name                    : C:\Users\xXCHR15Xx\Downloads\BASEKETBALL.mp4
Format                           : MPEG-4
Codec ID                         : M4V 
File size                        : 1.88 GiB
Duration                         : 1h 38mn
Overall bit rate                 : 2 723 Kbps
Encoded date                     : UTC 2011-08-31 18:32:10
Tagged date                      : UTC 2011-08-31 18:32:10

Video
ID                               : 1
Format                           : AVC
Format/Info                      : Advanced Video Codec
Format profile                   : Main@L3.1
Format settings, CABAC           : Yes
Format settings, ReFrames        : 2 frames
Codec ID                         : avc1
Codec ID/Info                    : Advanced Video Coding
Duration                         : 1h 38mn
Bit rate mode                    : Variable
Bit rate                         : 2 496 Kbps
Maximum bit rate                 : 3 750 Kbps
Width                            : 1 280 pixels
Height                           : 720 pixels
Display aspect ratio             : 16:9
Frame rate mode                  : Constant
Frame rate                       : 25.000 fps
Color space                      : YUV
Chroma subsampling               : 4:2:0
Bit depth                        : 8 bits
Scan type                        : Progressive
Bits/(Pixel*Frame)               : 0.108
Stream size                      : 1.72 GiB (92%)
Encoded date                     : UTC 2011-08-31 18:32:10
Tagged date                      : UTC 2011-08-31 18:32:10

Audio
ID                               : 2
Format                           : AAC
Format/Info                      : Advanced Audio Codec
Format profile                   : LC
Codec ID                         : 40
Duration                         : 1h 38mn
Bit rate mode                    : Variable
Bit rate                         : 224 Kbps
Maximum bit rate                 : 230 Kbps
Channel(s)                       : 2 channels
Channel positions                : Front: L R
Sampling rate                    : 48.0 KHz
Compression mode                 : Lossy
Stream size                      : 157 MiB (8%)
Encoded date                     : UTC 2011-08-31 18:32:11
Tagged date                      : UTC 2011-08-31 18:32:11
